<svg version="1.2" xmlns="http://www.w3.org/2000/svg" viewBox="0 0 849 413" width="849" height="413">
	<title>404-svg</title>
	<defs>
		<linearGradient id="g1" x2="1" gradientUnits="userSpaceOnUse" gradientTransform="matrix(-264.769,652.933,-958.881,-388.833,791.616,-27.279)">
			<stop offset="0" stop-color="#Ff5a0a" stop-opacity="1"/>
			<stop offset=".774" stop-color="#Ff5a0a" stop-opacity=".2"/>
			<stop offset="1" stop-color="#Ff5a0a" stop-opacity=".2"/>
		</linearGradient>
		<clipPath clipPathUnits="userSpaceOnUse" id="cp1">
			<path d="m305.89 221.12h24v61.71h-24v34.97h-67.19v-34.97h-100.8v-61.71l66.17-143.32h77.83l-67.2 143.31h24v-33.59h67.19zm211.87 68.22q-26.4 33.94-74.74 33.94-48.34 0-74.74-33.94-26.4-34.63-26.4-91.54 0-56.91 26.4-91.2 26.06-34.28 74.74-34.28 48.68 0 74.74 34.28 26.4 34.29 26.4 91.2 0 56.91-26.4 91.54zm-74.74-150.51q-32.57 0-32.57 58.97 0 58.97 32.57 58.97 32.57 0 32.57-58.97 0-58.97-32.57-58.97zm282.73 82.29h24v61.71h-24v34.97h-67.2v-34.97h-100.8v-61.71l66.17-143.31h77.83l-67.2 143.31h24v-33.6h67.2z"/>
		</clipPath>
		<linearGradient id="g2" x2="1" gradientUnits="userSpaceOnUse" gradientTransform="matrix(117.333,-331.755,510.749,180.639,260.77,349.336)">
			<stop offset="0" stop-color="#ffffff" stop-opacity=".25"/>
			<stop offset="1" stop-color="#ffffff" stop-opacity="0"/>
		</linearGradient>
		<filter x="-50%" y="-50%" width="200%" height="200%" id="f1"> <feGaussianBlur stdDeviation="5.9"/> </filter>
		<linearGradient id="g3" x2="1" gradientUnits="userSpaceOnUse" gradientTransform="matrix(-85.969,41.015,-41.015,-85.97,824.228,55.355)">
			<stop offset="0" stop-color="#ffffff" stop-opacity="1"/>
			<stop offset="1" stop-color="#ffffff" stop-opacity="0"/>
		</linearGradient>
		<filter x="-50%" y="-50%" width="200%" height="200%" id="f2"> <feGaussianBlur stdDeviation="5.6"/> </filter>
		<linearGradient id="g4" x2="1" gradientUnits="userSpaceOnUse" gradientTransform="matrix(-45.686,77.654,-77.654,-45.686,627.346,322.041)">
			<stop offset="0" stop-color="#ffffff" stop-opacity="1"/>
			<stop offset="1" stop-color="#ffffff" stop-opacity="0"/>
		</linearGradient>
		<filter x="-50%" y="-50%" width="200%" height="200%" id="f3"> <feGaussianBlur stdDeviation="6.3"/> </filter>
		<linearGradient id="g5" x2="1" gradientUnits="userSpaceOnUse" gradientTransform="matrix(-52.496,114.193,-114.193,-52.496,105.177,28.585)">
			<stop offset="0" stop-color="#ffffff" stop-opacity="1"/>
			<stop offset="1" stop-color="#ffffff" stop-opacity="0"/>
		</linearGradient>
	</defs>
	<style>
		.s0 { fill: url(#g1) }
		.s1 { fill: url(#g2) }
		.s2 { opacity: .2;filter: url(#f1);fill: #ffffff }
		.s3 { opacity: .2;fill: #ffffff }
		.s4 { fill: #Ff5a0a;stroke: url(#g3);stroke-width: .8 }
		.s5 { opacity: .2;filter: url(#f2);fill: #ffffff }
		.s6 { fill: #Ff5a0a;stroke: url(#g4);stroke-width: .8 }
		.s7 { opacity: .4;filter: url(#f3);fill: #ffffff }
		.s8 { fill: #Ff5a0a;stroke: url(#g5);stroke-width: 1 }
	</style>
	<path id="Layer" fill-rule="evenodd" class="s0" d="m305.9 221.1h24v61.7h-24v35h-67.2v-35h-100.8v-61.7l66.2-143.3h77.8l-67.2 143.3h24v-33.6h67.2zm211.9 68.2q-26.4 34-74.8 34-48.3 0-74.7-34-26.4-34.6-26.4-91.5 0-56.9 26.4-91.2 26-34.3 74.7-34.3 48.7 0 74.8 34.3 26.4 34.3 26.4 91.2 0 56.9-26.4 91.5zm-74.8-150.5q-32.5 0-32.5 59 0 59 32.5 59 32.6 0 32.6-59 0-59-32.6-59zm282.7 82.3h24v61.7h-24v35h-67.1v-35h-100.8v-61.7l66.1-143.3h77.9l-67.2 143.3h24v-33.6h67.1z"/>
	<g id="Clip-Path" clip-path="url(#cp1)">
		<path id="Layer" fill-rule="evenodd" class="s1" d="m300.5 226.5v-33.6h-56.4v-5.4h-7.7l-3.1 6.6v21.6h5.4v5.4h5.4v5.4h-37.9l3.6-7.7 4.9 2.3-4.9-2.3 63.6-135.6h-65.9l-64.2 139.1v55.1h100.8v35h56.4v-35h24v-50.9zm34.8-10.8v72.5h-24v35h-78v-35h-100.8v-68.3l0.5-1 4.9 2.2-4.9-2.2 66.2-143.4 1.4-3.1h89.8l-3.6 7.7-47.9 102h72.4v33.6zm186.7 76.9l-4.2-3.3zm-158 0.1l-0.1-0.1c-18.5-24.2-27.5-56-27.5-94.8 0-38.7 9-70.4 27.5-94.4 18.5-24.4 45.2-36.4 79-36.4 33.9 0 60.5 12 79.1 36.4 18.5 24 27.5 55.7 27.5 94.4 0 38.8-9 70.6-27.5 94.8l-4.4-3.3 4.3 3.4c-18.7 24.1-45.3 36-79 36-33.6 0-60.2-11.9-78.9-36l4.2-3.3zm149.5-182.8h-0.1l4.3-3.2-4.3 3.2c-16.2-21.3-39.4-32.2-70.4-32.2-31 0-54.3 10.9-70.5 32.2l-4.2-3.2 4.2 3.2c-16.7 21.7-25.3 50.8-25.3 87.9 0 37.2 8.6 66.4 25.3 88.3 16.5 21.1 39.7 31.8 70.5 31.8 30.8 0 54-10.7 70.5-31.8 16.7-21.9 25.2-51.2 25.2-88.3 0-37.1-8.6-66.2-25.2-87.9zm-82 37.3c-3.1 1.8-5.9 4.8-8.2 9-4.8 8.6-7.5 22.3-7.5 41.6 0 19.4 2.7 33 7.5 41.7 2.3 4.2 5.1 7.1 8.2 9 3.1 1.9 6.9 2.9 11.5 2.9 4.6 0 8.3-1 11.5-2.9 3.1-1.9 5.9-4.8 8.2-9 4.8-8.7 7.5-22.3 7.5-41.7 0-19.3-2.7-33-7.5-41.6-2.3-4.2-5.1-7.2-8.2-9-3.2-1.9-6.9-3-11.5-3-4.6 0-8.4 1.1-11.5 3zm40.6 97.5c-3.1 5.6-7.1 10-12.1 13-5 3.1-10.7 4.5-17 4.5-6.3 0-12-1.4-17-4.5-5.1-3-9.1-7.4-12.1-13-6.1-11.1-8.9-26.9-8.9-46.9 0-19.9 2.8-35.8 8.9-46.8 3-5.6 7-10 12.1-13.1 5-3 10.7-4.4 17-4.4 6.3 0 12 1.4 17 4.4 5 3.1 9 7.5 12.1 13.1 6.1 11 8.8 26.9 8.8 46.8 0 20-2.7 35.8-8.8 46.9zm248.2-18.2v-33.6h-56.4v-5.3h-5.4v5.3h5.4v33.6h-37.8l3.5-7.6 4.9 2.3-4.9-2.3 63.7-135.7h-66l-64.2 139.1v55.2h100.8v35h56.4v-35h24v-51zm34.8-10.7v72.4h-24v35h-78v-35h-100.8v-68.2l0.5-1.1 4.9 2.3-4.9-2.3 66.2-143.3 1.4-3.1h89.8l-3.6 7.6-47.9 102.1h72.4v33.6z"/>
	</g>
	<g id="Layer">
		<path id="Layer" class="s2" d="m764.1 115.6c10.8-24.4 0.3-53-23.7-64.5 24.3 10.8 52.9 0.3 64.5-23.7-10.8 24.3-0.3 52.9 23.7 64.5-24.4-10.8-53-0.3-64.5 23.7z"/>
	</g>
	<g id="Layer">
		<path id="Layer" class="s3" d="m764.1 115.6c10.8-24.4 0.3-53-23.7-64.5 24.3 10.8 52.9 0.3 64.5-23.7-10.8 24.3-0.3 52.9 23.7 64.5-24.4-10.8-53-0.3-64.5 23.7z"/>
		<path id="Layer" class="s4" d="m745.5 53.5c19.1 11.9 27.7 35.5 21 57 11.9-19.1 35.5-27.8 57-21-19.1-12-27.8-35.5-21-57-12 19.1-35.5 27.7-57 21z"/>
	</g>
	<g id="Layer">
		<path id="Layer" class="s5" d="m612.1 401.1c-4.4-24.8-27.8-41.7-52.7-38 24.8-4.4 41.6-27.8 38-52.7 4.4 24.8 27.7 41.6 52.7 38-24.8 4.4-41.7 27.7-38 52.7z"/>
	</g>
	<g id="Layer">
		<path id="Layer" class="s3" d="m612.1 401.1c-4.4-24.8-27.8-41.7-52.7-38 24.8-4.4 41.6-27.8 38-52.7 4.4 24.8 27.7 41.6 52.7 38-24.8 4.4-41.7 27.7-38 52.7z"/>
		<path id="Layer" class="s6" d="m564.6 362.2c21.3-0.7 40.6 13.2 46.6 33.6-0.7-21.3 13.2-40.5 33.6-46.6-21.3 0.7-40.5-13.1-46.6-33.6 0.7 21.3-13.1 40.6-33.6 46.6z"/>
	</g>
	<g id="Layer">
		<path id="Layer" class="s7" d="m95.1 140.4c-9.6-33.8-44.4-53.9-78.5-45.3 33.8-9.6 53.9-44.4 45.3-78.5 9.6 33.8 44.4 53.9 78.5 45.3-33.8 9.6-53.9 44.4-45.3 78.5z"/>
	</g>
	<g id="Layer">
		<path id="Layer" class="s3" d="m95.1 140.4c-9.6-33.8-44.4-53.9-78.5-45.3 33.8-9.6 53.9-44.4 45.3-78.5 9.6 33.8 44.4 53.9 78.5 45.3-33.8 9.6-53.9 44.4-45.3 78.5z"/>
		<path id="Layer" class="s8" d="m63.8 23.7c4.1 29.5-12.5 58.2-40.1 69.5 29.5-4 58.2 12.5 69.5 40.2-4-29.6 12.5-58.3 40.2-69.6-29.6 4.1-58.3-12.5-69.6-40.1z"/>
	</g>
</svg>
