<svg xmlns="http://www.w3.org/2000/svg" width="61" height="61" viewBox="0 0 61 61" fill="none">
    <path d="M9.53125 26.6876C9.02568 26.6876 8.54082 26.4868 8.18333 26.1293C7.82584 25.7718 7.625 25.2869 7.625 24.7813V9.53516C7.625 9.02959 7.82584 8.54473 8.18333 8.18723C8.54082 7.82974 9.02568 7.62891 9.53125 7.62891H24.7812C25.2868 7.62891 25.7717 7.82974 26.1292 8.18723C26.4867 8.54473 26.6875 9.02959 26.6875 9.53516V24.7813C26.6875 25.2869 26.4867 25.7718 26.1292 26.1293C25.7717 26.4868 25.2868 26.6876 24.7812 26.6876H9.53125ZM36.2188 26.6876C35.7132 26.6876 35.2283 26.4868 34.8708 26.1293C34.5133 25.7718 34.3125 25.2869 34.3125 24.7813V9.53516C34.3125 9.02959 34.5133 8.54473 34.8708 8.18723C35.2283 7.82974 35.7132 7.62891 36.2188 7.62891H51.4649C51.9705 7.62891 52.4554 7.82974 52.8129 8.18723C53.1703 8.54473 53.3712 9.02959 53.3712 9.53516V24.7813C53.3712 25.2869 53.1703 25.7718 52.8129 26.1293C52.4554 26.4868 51.9705 26.6876 51.4649 26.6876H36.2188ZM9.53125 53.3751C9.02568 53.3751 8.54082 53.1743 8.18333 52.8168C7.82584 52.4593 7.625 51.9744 7.625 51.4688V36.2188C7.625 35.7133 7.82584 35.2284 8.18333 34.8709C8.54082 34.5134 9.02568 34.3126 9.53125 34.3126H24.7812C25.2868 34.3126 25.7717 34.5134 26.1292 34.8709C26.4867 35.2284 26.6875 35.7133 26.6875 36.2188V51.4688C26.6875 51.9744 26.4867 52.4593 26.1292 52.8168C25.7717 53.1743 25.2868 53.3751 24.7812 53.3751H9.53125ZM36.2188 53.3751C35.7132 53.3751 35.2283 53.1743 34.8708 52.8168C34.5133 52.4593 34.3125 51.9744 34.3125 51.4688V36.2188C34.3125 35.7133 34.5133 35.2284 34.8708 34.8709C35.2283 34.5134 35.7132 34.3126 36.2188 34.3126H51.4649C51.9705 34.3126 52.4554 34.5134 52.8129 34.8709C53.1703 35.2284 53.3712 35.7133 53.3712 36.2188V51.4688C53.3712 51.9744 53.1703 52.4593 52.8129 52.8168C52.4554 53.1743 51.9705 53.3751 51.4649 53.3751H36.2188Z" fill="#Ff5a0a"/>
</svg>
